<?xml version="1.0" standalone="no"?>
<!DOCTYPE svg PUBLIC "-//W3C//DTD SVG 1.1//EN" "http://www.w3.org/Graphics/SVG/1.1/DTD/svg11.dtd" >
<svg xmlns="http://www.w3.org/2000/svg">
<metadata>
This is a custom SVG webfont generated by Font Squirrel.
Copyright   : Copyright c QuickStick Productions 2005 All rights reserved
</metadata>
<defs>
<font id="webfont4zw0S41c" horiz-adv-x="540" >
<font-face units-per-em="2048" ascent="1638" descent="-410" />
<missing-glyph horiz-adv-x="479" />
<glyph unicode=" "  horiz-adv-x="479" />
<glyph unicode="&#x09;" horiz-adv-x="479" />
<glyph unicode="&#xa0;" horiz-adv-x="479" />
<glyph unicode="!" horiz-adv-x="180" d="M147 119h-118v-119h118v119zM147 1434h-118v-1194h118v1194z" />
<glyph unicode="&#x22;" horiz-adv-x="425" d="M152 1434h-119v-359h119v359zM391 1434h-119v-359h119v359z" />
<glyph unicode="#" horiz-adv-x="522" d="M500 1016h-60v418h-118v-418h-121v418h-119v-418h-59v-121h59v-358h-59v-119h59v-418h119v418h121v-418h118v418h60v119h-60v358h60v121zM322 537h-121v358h121v-358z" />
<glyph unicode="$" horiz-adv-x="518" d="M498 1075v60q0 76 -52 127q-53 53 -127 53v119h-118v-119q-74 0 -127.5 -53.5t-53.5 -126.5v-60q-2 -272 177 -393l4 -4v-424q-16 10 -25 20q-37 33 -37 84h-119v-59q0 -74 53.5 -127t127.5 -53v-119h118v119q74 0 127 53q51 51 52 127v59q4 274 -174 394l-5 4v424 q6 -4 12.5 -9.5t12.5 -11.5q35 -35 35 -84h119zM176 1159q8 10 25 21v-316q-57 76 -58 152l-4 59q0 49 37 84zM344 274q-8 -8 -25 -20v315q55 -72 58 -151l2 -60q0 -49 -35 -84z" />
<glyph unicode="%" horiz-adv-x="522" d="M500 1434h-119l-358 -1434h118zM201 1374q0 27 -17 41q-18 18 -43 19h-59q-27 0 -41 -19q-18 -16 -18 -41v-59q0 -25 18 -43q14 -18 41 -19h59q25 0 43 19q16 16 17 43v59zM483 162q-16 16 -43 16h-59q-27 0 -43 -16q-16 -20 -16 -43v-60q0 -25 16 -41q18 -18 43 -18h59 q25 0 43 18q16 14 17 41v60q-1 27 -17 43z" />
<glyph unicode="&#x26;" horiz-adv-x="649" d="M508 1253q0 76 -51 127q-53 53 -127 54h-121q-72 0 -125 -53.5t-53 -127.5v-448q0 -37 26 -62q2 -4 4 -5t7 -5q23 -16 51 -16q-27 0 -53 -17q-2 -4 -4.5 -5t-4.5 -5q-27 -25 -26 -61v-451q0 -72 53 -125t125 -53h420v119h-62l62 59l-90 90l-31 -28v389q0 37 -25 61 l-10 10q-23 16 -51 17q25 0 51 16q2 4 4 5t6 5q25 25 25 62v448zM270 1315q49 0 84 -35q35 -39 35 -86v-299q0 -45 -35 -84q-35 -35 -84 -35q-47 0 -86 35q-35 39 -34 84v299q0 47 34 86q39 35 86 35zM150 537q0 47 34 86q39 35 86 34q49 0 84 -34q35 -39 35 -86v-297 q0 -47 -35 -86q-35 -35 -84 -35q-47 0 -86 35q-35 39 -34 86v297z" />
<glyph unicode="'" horiz-adv-x="188" d="M152 1434h-119v-359h119v359z" />
<glyph unicode="(" horiz-adv-x="288" d="M270 1315v119h-61q-72 0 -125 -53.5t-53 -127.5v-1075q0 -72 53 -125t125 -53h61v119q-47 0 -86 35q-35 39 -34 86v954q0 47 34 86q39 35 86 35z" />
<glyph unicode=")" horiz-adv-x="288" d="M76 1434h-60v-119q49 0 84 -35t35 -86v-954q0 -51 -34.5 -86t-84.5 -35v-119h60q74 0 127 53t53 125v1075q0 74 -53 127.5t-127 53.5z" />
<glyph unicode="*" horiz-adv-x="514" d="M496 1194v121h-179v119h-120v-119h-179v-121h119l-92 -135l92 -64l121 140l119 -140l94 64l-94 135h119z" />
<glyph unicode="+" horiz-adv-x="495" d="M485 178v121h-178v178h-121v-178h-178v-121h178v-178h121v178h178z" />
<glyph unicode="," horiz-adv-x="176" d="M31 59h59l-59 -59h59l60 59v119h-119v-119z" />
<glyph unicode="-" horiz-adv-x="544" d="M510 178v121h-477v-121h477z" />
<glyph unicode="." horiz-adv-x="188" d="M152 119h-119v-119h119v119z" />
<glyph unicode="/" horiz-adv-x="485" d="M481 1434h-119l-358 -1434h119z" />
<glyph unicode="0" d="M508 1253q0 76 -51 127q-53 53 -127 54h-121q-72 0 -125 -53.5t-53 -127.5v-1075q0 -72 53 -125t125 -53h121q74 0 127 53q51 51 51 125v1075zM270 1315q49 0 84 -35q35 -39 35 -86v-954q0 -47 -35 -86q-35 -35 -84 -35q-47 0 -86 35q-35 39 -34 86v954q0 47 34 86 q39 35 86 35z" />
<glyph unicode="1" horiz-adv-x="337" d="M182 1434l-178 -119v-133l178 121v-1303h121v1434h-121z" />
<glyph unicode="2" horiz-adv-x="530" d="M508 1253q0 76 -51 127q-53 53 -127 54h-121q-72 0 -125 -53.5t-53 -127.5v-178h119v119q0 47 34 86q39 35 86 35q49 0 84 -35q35 -39 35 -86l-2 -119v-59q-4 -47 -20 -88l-336 -797v-131h477v119h-358l315 717q23 51 34 110.5t9 128.5v178z" />
<glyph unicode="3" horiz-adv-x="538" d="M506 1253q0 76 -51 127q-53 53 -127 54h-121q-72 0 -125 -53.5t-53 -127.5v-178h118v119q0 47 35 86q39 35 86 35q49 0 84 -35q35 -39 35 -86v-299q0 -45 -35 -84q-35 -35 -84 -35h-61v-119h61q49 0 84 -34q35 -39 35 -86v-297q0 -47 -35 -86q-35 -35 -84 -35 q-47 0 -86 35q-35 39 -35 86v118h-118v-180q0 -72 53 -125t125 -53h121q74 0 127 53q51 51 51 125v451q0 37 -25 61l-10 10q-23 16 -51 17q25 0 51 16q2 4 4 5t6 5q25 25 25 62v448z" />
<glyph unicode="4" horiz-adv-x="497" d="M367 1434h-119l-240 -957v-119h240v-358h119v358h118v119h-118v957zM248 477h-121l121 498v-498z" />
<glyph unicode="5" horiz-adv-x="530" d="M508 1315v119h-477v-658h239q49 0 84 -34.5t35 -84.5v-417q0 -47 -35 -86q-35 -35 -84 -35q-47 0 -86 35q-35 39 -34 86v118h-119v-180q0 -72 53 -125t125 -53h121q74 0 127 53q51 51 51 125v543q0 68 -51 123q-51 51 -127 51h-180v420h358z" />
<glyph unicode="6" horiz-adv-x="538" d="M508 1253q0 76 -51 127q-53 53 -127 54h-121q-72 0 -125 -53.5t-53 -127.5v-1075q0 -72 53 -125t125 -53h121q74 0 127 53q51 51 51 125v543q0 68 -51 123q-31 31 -68 43q-25 8 -59 8h-180v299q0 47 34 86q39 35 86 35q49 0 84 -35q35 -39 35 -86v-119h119v178zM270 776 q49 0 84 -34.5t35 -84.5v-417q0 -47 -35 -86q-35 -35 -84 -35q-47 0 -86 35q-35 39 -34 86v536h120z" />
<glyph unicode="7" horiz-adv-x="497" d="M16 1434v-119h328l-328 -1315h119l359 1434h-478z" />
<glyph unicode="8" d="M508 1253q0 76 -51 127q-53 53 -127 54h-121q-72 0 -125 -53.5t-53 -127.5v-448q0 -37 26 -62q2 -4 4 -5t7 -5q23 -16 51 -16q-27 0 -53 -17q-2 -4 -4.5 -5t-4.5 -5q-27 -25 -26 -61v-451q0 -72 53 -125t125 -53h121q74 0 127 53q51 51 51 125v451q0 37 -25 61l-10 10 q-23 16 -51 17q25 0 51 16q2 4 4 5t6 5q25 25 25 62v448zM270 1315q49 0 84 -35q35 -39 35 -86v-299q0 -45 -35 -84q-35 -35 -84 -35q-47 0 -86 35q-35 39 -34 84v299q0 47 34 86q39 35 86 35zM150 537q0 47 34 86q39 35 86 34q49 0 84 -34q35 -39 35 -86v-297 q0 -47 -35 -86q-35 -35 -84 -35q-47 0 -86 35q-35 39 -34 86v297z" />
<glyph unicode="9" d="M508 1253q0 76 -51 127q-53 53 -127 54h-121q-72 0 -125 -53.5t-53 -127.5v-540q0 -70 53 -123q27 -31 66 -43q31 -10 59 -10h180v-297q0 -47 -35 -86q-35 -35 -84 -35q-47 0 -86 35q-35 39 -34 86v118h-119v-180q0 -72 53 -125t125 -53h121q74 0 127 53q51 51 51 125 v1075zM270 1315q49 0 84 -35q35 -39 35 -86v-537h-119q-47 0 -86 35q-35 35 -34 84v418q0 47 34 86q39 35 86 35z" />
<glyph unicode=":" horiz-adv-x="169" d="M152 119h-119v-119h119v119zM152 358h-119v-118h119v118z" />
<glyph unicode=";" horiz-adv-x="178" d="M147 299v119h-118v-119h118zM29 59h59l-59 -59h59l59 59v119h-118v-119z" />
<glyph unicode="&#x3c;" horiz-adv-x="499" d="M477 987v148l-477 -418l477 -418v147l-299 271z" />
<glyph unicode="=" horiz-adv-x="526" d="M510 244v121h-477v-121h477zM510 119h-477v-119h477v119z" />
<glyph unicode="&#x3e;" horiz-adv-x="509" d="M33 1135v-148l299 -270l-299 -271v-147l477 418z" />
<glyph unicode="?" horiz-adv-x="505" d="M139 119h-119v-119h119v119zM498 1253q0 76 -52 127q-53 53 -127 54h-120q-72 0 -125.5 -53.5t-53.5 -127.5v-178h119v119q0 47 35 86q39 35 86 35q49 0 84 -35q35 -39 35 -86v-418q0 -49 -35 -84t-84 -35h-61q-72 0 -125.5 -53t-53.5 -127v-237h119v178q0 49 35 84 t86 35h59q74 0 127 53q51 55 52 123v540z" />
<glyph unicode="@" d="M508 1253q0 76 -51 127q-53 53 -127 54h-121q-72 0 -125 -53.5t-53 -127.5v-1075q0 -72 53 -125t125 -53h299v119h-238q-47 0 -86 35q-35 39 -34 86v954q0 47 34 86q39 35 86 35q49 0 84 -35q35 -39 35 -86v-866q0 -8 -8 -21q-8 -8 -21 -8h-2q-12 0 -20 8t-8 21v866 q0 25 -19 43q-14 16 -41 16t-43 -16q-18 -18 -18 -43v-954q0 -25 18.5 -43.5t42.5 -18.5h179q25 0 43 19q16 20 16 41v1015z" />
<glyph unicode="A" horiz-adv-x="507" d="M313 1434h-120l-179 -1434h131l39 358h140l36 -358h132zM311 477h-114l57 545z" />
<glyph unicode="B" horiz-adv-x="542" d="M510 1253q0 76 -51 127q-53 53 -127 54h-299v-1434h299q74 0 127 53q51 51 51 125v451q0 37 -25 61l-10 10q-23 16 -51 17q25 0 51 16q2 4 4 5t6 5q25 25 25 62v448zM272 1315q49 0 84 -35q35 -39 35 -86v-299q0 -45 -35 -84q-35 -35 -84 -35h-120v539h120zM356 623 q35 -39 35 -86v-297q0 -47 -35 -86q-35 -35 -84 -35h-120v538h120q49 1 84 -34z" />
<glyph unicode="C" horiz-adv-x="538" d="M508 1253q0 76 -51 127q-53 53 -127 54h-121q-72 0 -125 -53.5t-53 -127.5v-1075q0 -72 53 -125t125 -53h121q74 0 127 53q51 51 51 125v180h-119v-118q0 -47 -35 -86q-35 -35 -84 -35q-47 0 -86 35q-35 39 -34 86v954q0 47 34 86q39 35 86 35q49 0 84 -35q35 -39 35 -86 v-119h119v178z" />
<glyph unicode="D" horiz-adv-x="542" d="M510 1253q0 76 -51 127q-53 53 -127 54h-299v-1434h299q74 0 127 53q51 51 51 125v1075zM272 1315q49 0 84 -35q35 -39 35 -86v-954q0 -47 -35 -86q-35 -35 -84 -35h-120v1196h120z" />
<glyph unicode="E" horiz-adv-x="518" d="M510 1315v119h-477v-1434h477v119h-358v538h358v119h-358v539h358z" />
<glyph unicode="F" horiz-adv-x="509" d="M510 1315v119h-477v-1434h119v657h358v119h-358v539h358z" />
<glyph unicode="G" horiz-adv-x="538" d="M508 1253q0 76 -51 127q-53 53 -127 54h-121q-72 0 -125 -53.5t-53 -127.5v-1075q0 -72 53 -125t125 -53h121q74 0 127 53q51 51 51 125v539h-238v-119h119v-358q0 -47 -35 -86q-35 -35 -84 -35q-47 0 -86 35q-35 39 -34 86v954q0 47 34 86q39 35 86 35q49 0 84 -35 q35 -39 35 -86v-119h119v178z" />
<glyph unicode="H" horiz-adv-x="544" d="M152 1434h-119v-1434h119v657h239v-657h119v1434h-119v-658h-239v658z" />
<glyph unicode="I" horiz-adv-x="188" d="M152 1434h-119v-1434h119v1434z" />
<glyph unicode="J" horiz-adv-x="514" d="M481 1434h-119v-1194q0 -47 -34 -86q-35 -35 -84 -35q-47 0 -86 35q-35 39 -35 86v118h-119v-180q0 -72 53.5 -125t124.5 -53h121q74 0 127 53q51 51 51 125v1256z" />
<glyph unicode="K" horiz-adv-x="536" d="M152 1434h-119v-1434h119v680l227 -680h131l-238 717l238 717h-131l-227 -682v682z" />
<glyph unicode="L" horiz-adv-x="509" d="M152 1434h-119v-1434h477v119h-358v1315z" />
<glyph unicode="M" horiz-adv-x="663" d="M631 1434h-193l-106 -1016l-109 1016h-190v-1434h119v956l120 -956h119l119 956v-956h121v1434z" />
<glyph unicode="N" horiz-adv-x="544" d="M217 1434h-184v-1434h119v1067l174 -1067h184v1434h-119v-1065z" />
<glyph unicode="O" d="M508 1253q0 76 -51 127q-53 53 -127 54h-121q-72 0 -125 -53.5t-53 -127.5v-1075q0 -72 53 -125t125 -53h121q74 0 127 53q51 51 51 125v1075zM270 1315q49 0 84 -35q35 -39 35 -86v-954q0 -47 -35 -86q-35 -35 -84 -35q-47 0 -86 35q-35 39 -34 86v954q0 47 34 86 q39 35 86 35z" />
<glyph unicode="P" horiz-adv-x="518" d="M510 1253q0 76 -51 127q-53 53 -127 54h-299v-1434h119v657h180q76 0 127 52q51 53 51 127v417zM272 1315q49 0 84 -35q35 -39 35 -86v-299q0 -45 -35 -84q-35 -35 -84 -35h-120v539h120z" />
<glyph unicode="Q" horiz-adv-x="647" d="M510 1253q0 76 -51 127q-53 53 -127 54h-121q-72 0 -125 -53.5t-53 -127.5v-1075q0 -72 53 -125t125 -53h420v119h-129q8 25 8 59v1075zM272 1315q49 0 84 -35q35 -39 35 -86v-954q0 -47 -35 -86q-35 -35 -84 -35q-47 0 -86 35q-35 39 -34 86v954q0 47 34 86q39 35 86 35 z" />
<glyph unicode="R" horiz-adv-x="542" d="M510 1253q0 76 -51 127q-53 53 -127 54h-299v-1434h119v657h120q49 0 84 -34q35 -39 35 -86v-537h119v629q0 37 -25 61l-10 10q-23 16 -51 17q25 0 51 16q2 4 4 5t6 5q25 25 25 62v448zM272 1315q49 0 84 -35q35 -39 35 -86v-299q0 -45 -35 -84q-35 -35 -84 -35h-120v539 h120z" />
<glyph unicode="S" horiz-adv-x="538" d="M508 1253q0 76 -51 127q-53 53 -127 54h-119q-74 0 -127 -53.5t-53 -127.5v-178q-2 -272 176 -393q178 -125 180 -264l2 -60v-118q0 -47 -35 -86q-35 -35 -84 -35t-84 35q-37 37 -36 86v118h-119v-180q0 -72 53 -125t127 -53h119q74 0 127 53q51 51 51 125v180v13 q0 265 -174 381q-176 123 -180 264v59l-4 119q0 49 36 86q35 35 84 35t84 -35q35 -39 35 -86v-119h119v178z" />
<glyph unicode="T" horiz-adv-x="495" d="M485 1315v119h-477v-119h178v-1315h121v1315h178z" />
<glyph unicode="U" horiz-adv-x="542" d="M152 1434h-119v-1256q0 -72 53 -125t125 -53h121q74 0 127 53q51 51 51 125v1256h-119v-1194q0 -47 -35 -86q-35 -35 -84 -35q-47 0 -86 35q-35 39 -34 86v1194z" />
<glyph unicode="V" horiz-adv-x="507" d="M145 1434h-131l179 -1434h120l179 1434h-132l-106 -1016z" />
<glyph unicode="W" horiz-adv-x="868" d="M154 1434h-131l178 -1434h121l112 907l115 -907h119l178 1434h-131l-107 -1016l-108 1016h-131l-107 -1016z" />
<glyph unicode="X" horiz-adv-x="530" d="M152 1434h-125l176 -717l-176 -717h125l114 461l113 -461h125l-176 717l176 717h-125l-113 -461z" />
<glyph unicode="Y" horiz-adv-x="501" d="M137 1434h-125l178 -717v-717h121v717l178 717h-124l-113 -461z" />
<glyph unicode="Z" horiz-adv-x="512" d="M16 1434v-119h324l-324 -1315h478v119h-322l322 1315h-478z" />
<glyph unicode="[" horiz-adv-x="286" d="M272 1315v119h-239v-1434h239v119h-120v1196h120z" />
<glyph unicode="\" horiz-adv-x="485" d="M123 1434h-119l358 -1434h119z" />
<glyph unicode="]" horiz-adv-x="286" d="M12 1315h119v-1196h-119v-119h240v1434h-240v-119z" />
<glyph unicode="^" horiz-adv-x="501" d="M12 895h119l121 299l119 -299h118l-237 539z" />
<glyph unicode="_" horiz-adv-x="544" d="M510 119h-477v-119h477v119z" />
<glyph unicode="`" horiz-adv-x="264" d="M131 1194h119l-119 240h-121z" />
<glyph unicode="a" horiz-adv-x="509" d="M315 1434h-120l-179 -1434h131l39 358h140l36 -358h132zM313 477h-114l57 545z" />
<glyph unicode="b" horiz-adv-x="542" d="M510 1253q0 76 -51 127q-53 53 -127 54h-299v-1434h299q74 0 127 53q51 51 51 125v451q0 37 -25 61l-10 10q-23 16 -51 17q25 0 51 16q2 4 4 5t6 5q25 25 25 62v448zM272 1315q49 0 84 -35q35 -39 35 -86v-299q0 -45 -35 -84q-35 -35 -84 -35h-120v539h120zM356 623 q35 -39 35 -86v-297q0 -47 -35 -86q-35 -35 -84 -35h-120v538h120q49 1 84 -34z" />
<glyph unicode="c" horiz-adv-x="538" d="M508 1253q0 76 -51 127q-53 53 -127 54h-121q-72 0 -125 -53.5t-53 -127.5v-1075q0 -72 53 -125t125 -53h121q74 0 127 53q51 51 51 125v180h-119v-118q0 -47 -35 -86q-35 -35 -84 -35q-47 0 -86 35q-35 39 -34 86v954q0 47 34 86q39 35 86 35q49 0 84 -35q35 -39 35 -86 v-119h119v178z" />
<glyph unicode="d" horiz-adv-x="542" d="M510 1253q0 76 -51 127q-53 53 -127 54h-299v-1434h299q74 0 127 53q51 51 51 125v1075zM272 1315q49 0 84 -35q35 -39 35 -86v-954q0 -47 -35 -86q-35 -35 -84 -35h-120v1196h120z" />
<glyph unicode="e" horiz-adv-x="518" d="M510 1315v119h-477v-1434h477v119h-358v538h358v119h-358v539h358z" />
<glyph unicode="f" horiz-adv-x="509" d="M510 1315v119h-477v-1434h119v657h358v119h-358v539h358z" />
<glyph unicode="g" horiz-adv-x="538" d="M508 1253q0 76 -51 127q-53 53 -127 54h-121q-72 0 -125 -53.5t-53 -127.5v-1075q0 -72 53 -125t125 -53h121q74 0 127 53q51 51 51 125v539h-238v-119h119v-358q0 -47 -35 -86q-35 -35 -84 -35q-47 0 -86 35q-35 39 -34 86v954q0 47 34 86q39 35 86 35q49 0 84 -35 q35 -39 35 -86v-119h119v178z" />
<glyph unicode="h" horiz-adv-x="544" d="M152 1434h-119v-1434h119v657h239v-657h119v1434h-119v-658h-239v658z" />
<glyph unicode="i" horiz-adv-x="188" d="M152 1434h-119v-1434h119v1434z" />
<glyph unicode="j" horiz-adv-x="514" d="M481 1434h-119v-1194q0 -47 -34 -86q-35 -35 -84 -35q-47 0 -86 35q-35 39 -35 86v118h-119v-180q0 -72 53.5 -125t124.5 -53h121q74 0 127 53q51 51 51 125v1256z" />
<glyph unicode="k" horiz-adv-x="536" d="M152 1434h-119v-1434h119v680l227 -680h131l-238 717l238 717h-131l-227 -682v682z" />
<glyph unicode="l" horiz-adv-x="509" d="M152 1434h-119v-1434h477v119h-358v1315z" />
<glyph unicode="m" horiz-adv-x="663" d="M631 1434h-193l-106 -1016l-109 1016h-190v-1434h119v956l120 -956h119l119 956v-956h121v1434z" />
<glyph unicode="n" horiz-adv-x="544" d="M217 1434h-184v-1434h119v1067l174 -1067h184v1434h-119v-1065z" />
<glyph unicode="o" d="M508 1253q0 76 -51 127q-53 53 -127 54h-121q-72 0 -125 -53.5t-53 -127.5v-1075q0 -72 53 -125t125 -53h121q74 0 127 53q51 51 51 125v1075zM270 1315q49 0 84 -35q35 -39 35 -86v-954q0 -47 -35 -86q-35 -35 -84 -35q-47 0 -86 35q-35 39 -34 86v954q0 47 34 86 q39 35 86 35z" />
<glyph unicode="p" horiz-adv-x="518" d="M510 1253q0 76 -51 127q-53 53 -127 54h-299v-1434h119v657h180q76 0 127 52q51 53 51 127v417zM272 1315q49 0 84 -35q35 -39 35 -86v-299q0 -45 -35 -84q-35 -35 -84 -35h-120v539h120z" />
<glyph unicode="q" horiz-adv-x="647" d="M510 1253q0 76 -51 127q-53 53 -127 54h-121q-72 0 -125 -53.5t-53 -127.5v-1075q0 -72 53 -125t125 -53h420v119h-129q8 25 8 59v1075zM272 1315q49 0 84 -35q35 -39 35 -86v-954q0 -47 -35 -86q-35 -35 -84 -35q-47 0 -86 35q-35 39 -34 86v954q0 47 34 86q39 35 86 35 z" />
<glyph unicode="r" horiz-adv-x="542" d="M510 1253q0 76 -51 127q-53 53 -127 54h-299v-1434h119v657h120q49 0 84 -34q35 -39 35 -86v-537h119v629q0 37 -25 61l-10 10q-23 16 -51 17q25 0 51 16q2 4 4 5t6 5q25 25 25 62v448zM272 1315q49 0 84 -35q35 -39 35 -86v-299q0 -45 -35 -84q-35 -35 -84 -35h-120v539 h120z" />
<glyph unicode="s" horiz-adv-x="538" d="M508 1253q0 76 -51 127q-53 53 -127 54h-119q-74 0 -127 -53.5t-53 -127.5v-178q-2 -272 176 -393q178 -125 180 -264l2 -60v-118q0 -47 -35 -86q-35 -35 -84 -35t-84 35q-37 37 -36 86v118h-119v-180q0 -72 53 -125t127 -53h119q74 0 127 53q51 51 51 125v180v13 q0 265 -174 381q-176 123 -180 264v59l-4 119q0 49 36 86q35 35 84 35t84 -35q35 -39 35 -86v-119h119v178z" />
<glyph unicode="t" horiz-adv-x="495" d="M485 1315v119h-477v-119h178v-1315h121v1315h178z" />
<glyph unicode="u" horiz-adv-x="542" d="M152 1434h-119v-1256q0 -72 53 -125t125 -53h121q74 0 127 53q51 51 51 125v1256h-119v-1194q0 -47 -35 -86q-35 -35 -84 -35q-47 0 -86 35q-35 39 -34 86v1194z" />
<glyph unicode="v" horiz-adv-x="507" d="M145 1434h-131l179 -1434h120l179 1434h-132l-106 -1016z" />
<glyph unicode="w" horiz-adv-x="868" d="M154 1434h-131l178 -1434h121l112 907l115 -907h119l178 1434h-131l-107 -1016l-108 1016h-131l-107 -1016z" />
<glyph unicode="x" horiz-adv-x="530" d="M152 1434h-125l176 -717l-176 -717h125l114 461l113 -461h125l-176 717l176 717h-125l-113 -461z" />
<glyph unicode="y" horiz-adv-x="501" d="M137 1434h-125l178 -717v-717h121v717l178 717h-124l-113 -461z" />
<glyph unicode="z" horiz-adv-x="512" d="M16 1434v-119h324l-324 -1315h478v119h-322l322 1315h-478z" />
<glyph unicode="{" horiz-adv-x="387" d="M365 1315v119h-60q-74 0 -127 -53.5t-53 -127.5v-356q0 -45 -35 -80q-35 -37 -84 -37v-118q49 0 84 -35t35 -82v-367q0 -72 53 -125t127 -53h60v119q-49 0 -84 34.5t-35 86.5v395q-4 39 -27 61q-4 2 -5 4t-5 5q-23 16 -51 16q29 0 51 16l10 11q23 23 27 59v387 q0 51 35 86t84 35z" />
<glyph unicode="|" horiz-adv-x="268" d="M233 1432h-200v-1434h200v1434z" />
<glyph unicode="}" horiz-adv-x="387" d="M82 1434h-59v-119q49 0 83.5 -35t34.5 -86v-387q4 -37 27 -59l10 -11q23 -16 51 -16q-29 0 -51 -16q-4 -2 -5 -4.5t-5 -4.5q-23 -23 -27 -61v-395q0 -51 -34.5 -86t-83.5 -35v-119h59q74 0 127 53t53 125v367q0 47 35 82t84 35v118q-51 0 -84 37q-35 35 -35 80v356 q0 74 -53 127.5t-127 53.5z" />
<glyph unicode="~" horiz-adv-x="581" d="M559 1315v119l-178 -181l-180 181l-178 -181v-118l178 180l180 -180z" />
<glyph unicode="&#xa9;" horiz-adv-x="401" d="M221 967h-41q-29 0 -45 -17q-18 -18 -18 -45v-377q0 -25 18 -45q23 -18 45 -18h41q23 0 45 18q16 18 17 45v64h-41v-43q0 -16 -12.5 -28.5t-28.5 -12.5q-18 0 -30.5 12t-12.5 29v336q0 16 12 28.5t31 12.5q16 0 28.5 -12.5t12.5 -28.5v-43h41v63q0 29 -16.5 45.5 t-45.5 16.5zM367 987q0 25 -18.5 43.5t-43.5 18.5h-209q-27 0 -45 -18.5t-18 -43.5v-545q0 -25 18 -45q23 -18 45 -18h209q20 0 43 18q18 20 19 45v545zM86 995q12 12 31 13h166q18 0 30.5 -12.5t12.5 -30.5v-502q0 -16 -12.5 -28.5t-30.5 -12.5h-166q-18 0 -30.5 12 t-12.5 29v502q0 18 12 30z" />
<glyph unicode="&#xaa;" horiz-adv-x="509" d="M315 1434h-120l-179 -1434h131l39 358h140l36 -358h132zM313 477h-114l57 545z" />
<glyph unicode="&#xad;" horiz-adv-x="544" d="M510 178v121h-477v-121h477z" />
<glyph unicode="&#xae;" horiz-adv-x="401" d="M367 987q0 25 -18.5 43.5t-43.5 18.5h-209q-27 0 -45 -18.5t-18 -43.5v-545q0 -25 18 -45q23 -18 45 -18h209q20 0 43 18q18 20 19 45v545zM74 965q0 18 12 30.5t31 12.5h166q18 0 30.5 -12.5t12.5 -30.5v-502q0 -16 -12.5 -28.5t-30.5 -12.5h-166q-18 0 -30.5 12 t-12.5 29v502zM221 967h-104v-502h41v231h43q16 0 28.5 -12t12.5 -31v-188h41v221q0 14 -9 23q-2 2 -4 2q-6 6 -16 6q10 0 16 6h2q0 2 2 2q8 8 9 23v157q0 29 -16.5 45.5t-45.5 16.5zM158 926h43q16 0 28.5 -12.5t12.5 -28.5v-105q0 -18 -12.5 -30.5t-28.5 -12.5h-43v189z " />
<glyph unicode="&#xb0;" horiz-adv-x="532" d="M504 1255q0 76 -51 127q-53 53 -127 54h-121q-72 0 -125 -53.5t-53 -127.5v-137q0 -72 53 -125t125 -53h121q74 0 127 53q51 51 51 125v137zM266 1317q49 0 84 -35q35 -39 35 -86v-16q0 -47 -35 -86q-35 -35 -84 -35q-47 0 -86 35q-35 39 -35 86v16q0 47 35 86 q39 35 86 35z" />
<glyph unicode="&#xb1;" horiz-adv-x="516" d="M496 383v121h-179v178h-120v-178h-179v-121h179v-178h120v178h179zM496 119h-478v-119h478v119z" />
<glyph unicode="&#xb2;" horiz-adv-x="260" d="M236 1356q0 35 -23 55q-23 23 -53 23h-54q-31 0 -53 -22.5t-22 -55.5v-76h51v51q0 18 14 37q18 14 37 14q18 0 37 -14q14 -14 14 -37v-51v-27q-2 -10 -4 -18t-6 -18l-143 -343v-57h205v51h-154l135 310q10 23 15.5 47t3.5 55v76z" />
<glyph unicode="&#xb3;" horiz-adv-x="270" d="M236 1358q0 33 -23 55.5t-55 22.5h-52q-29 0 -55 -23q-23 -27 -22 -55v-78h51v51q0 20 16.5 36.5t36.5 16.5t37 -16q14 -18 14 -37v-129q0 -18 -14 -37q-16 -16 -37 -16h-27v-51h27q23 0 37 -15q14 -18 14 -36v-129q0 -18 -14 -39q-18 -14 -37 -15q-18 0 -37 15 q-16 20 -16 39v51h-51v-78q0 -33 22 -55q27 -23 55 -23h52q33 0 55 23q23 20 23 55v194q0 18 -11 27l-4 4q-8 8 -22 8q10 0 22 6q0 2 4 7q10 8 11 26v195z" />
<glyph unicode="&#xb4;" horiz-adv-x="264" d="M252 1434h-119l-121 -240h121z" />
<glyph unicode="&#xb9;" horiz-adv-x="167" d="M80 1432l-76 -52v-57l76 53v-557h51v613h-51z" />
<glyph unicode="&#xba;" d="M508 1253q0 76 -51 127q-53 53 -127 54h-121q-72 0 -125 -53.5t-53 -127.5v-1075q0 -72 53 -125t125 -53h121q74 0 127 53q51 51 51 125v1075zM270 1315q49 0 84 -35q35 -39 35 -86v-954q0 -47 -35 -86q-35 -35 -84 -35q-47 0 -86 35q-35 39 -34 86v954q0 47 34 86 q39 35 86 35z" />
<glyph unicode="&#xbf;" horiz-adv-x="505" d="M367 1315h118v119h-118v-119zM8 180q0 -76 51 -127q53 -53 127 -53h121q72 0 125 53t53 127v178h-118v-118q0 -47 -35 -86q-39 -35 -86 -35q-49 0 -84 35q-35 39 -35 86v417q0 49 35 84t84 35h61q72 0 125 53.5t53 126.5v238h-118v-178q0 -49 -35 -84t-86 -35h-60 q-74 0 -127 -53q-51 -55 -51 -123v-541z" />
<glyph unicode="&#xc0;" horiz-adv-x="507" d="M192 1556h119l-119 240h-121zM313 1434h-120l-179 -1434h131l39 358h140l36 -358h132zM311 477h-114l57 545z" />
<glyph unicode="&#xc1;" horiz-adv-x="507" d="M432 1796h-119l-121 -240h121zM313 1434h-120l-179 -1434h131l39 358h140l36 -358h132zM311 477h-114l57 545z" />
<glyph unicode="&#xc2;" horiz-adv-x="507" d="M14 1557h119l121 299l119 -299h118l-237 539zM313 1434h-120l-179 -1434h131l39 358h140l36 -358h132zM311 477h-114l57 545z" />
<glyph unicode="&#xc3;" horiz-adv-x="507" d="M522 1737v119l-178 -181l-180 181l-178 -181v-118l178 180l180 -180zM313 1434h-120l-179 -1434h131l39 358h140l36 -358h132zM311 477h-114l57 545z" />
<glyph unicode="&#xc5;" horiz-adv-x="507" d="M492 1732q0 76 -51 127q-53 53 -127 54h-121q-72 0 -125 -53.5t-53 -127.5v-137q0 -72 53 -125t125 -53h121q74 0 127 53q51 51 51 125v137zM254 1794q49 0 84 -35q35 -39 35 -86v-16q0 -47 -35 -86q-35 -35 -84 -35q-47 0 -86 35q-35 39 -35 86v16q0 47 35 86 q39 35 86 35zM313 1434h-120l-179 -1434h131l39 358h140l36 -358h132zM311 477h-114l57 545z" />
<glyph unicode="&#xc8;" horiz-adv-x="518" d="M213 1556h119l-119 240h-121zM510 1315v119h-477v-1434h477v119h-358v538h358v119h-358v539h358z" />
<glyph unicode="&#xc9;" horiz-adv-x="518" d="M451 1796h-119l-121 -240h121zM510 1315v119h-477v-1434h477v119h-358v538h358v119h-358v539h358z" />
<glyph unicode="&#xca;" horiz-adv-x="518" d="M32 1557h119l121 299l119 -299h118l-237 539zM510 1315v119h-477v-1434h477v119h-358v538h358v119h-358v539h358z" />
<glyph unicode="&#xcc;" horiz-adv-x="188" d="M33 1556h119l-119 240h-121zM152 1434h-119v-1434h119v1434z" />
<glyph unicode="&#xcd;" horiz-adv-x="188" d="M272 1796h-119l-121 -240h121zM152 1434h-119v-1434h119v1434z" />
<glyph unicode="&#xce;" horiz-adv-x="188" d="M-148 1557h119l121 299l119 -299h118l-237 539zM152 1434h-119v-1434h119v1434z" />
<glyph unicode="&#xd1;" horiz-adv-x="544" d="M539 1737v119l-178 -181l-180 181l-178 -181v-118l178 180l180 -180zM217 1434h-184v-1434h119v1067l174 -1067h184v1434h-119v-1065z" />
<glyph unicode="&#xd2;" d="M209 1556h119l-119 240h-121zM508 1253q0 76 -51 127q-53 53 -127 54h-121q-72 0 -125 -53.5t-53 -127.5v-1075q0 -72 53 -125t125 -53h121q74 0 127 53q51 51 51 125v1075zM270 1315q49 0 84 -35q35 -39 35 -86v-954q0 -47 -35 -86q-35 -35 -84 -35q-47 0 -86 35 q-35 39 -34 86v954q0 47 34 86q39 35 86 35z" />
<glyph unicode="&#xd3;" d="M449 1796h-119l-121 -240h121zM508 1253q0 76 -51 127q-53 53 -127 54h-121q-72 0 -125 -53.5t-53 -127.5v-1075q0 -72 53 -125t125 -53h121q74 0 127 53q51 51 51 125v1075zM270 1315q49 0 84 -35q35 -39 35 -86v-954q0 -47 -35 -86q-35 -35 -84 -35q-47 0 -86 35 q-35 39 -34 86v954q0 47 34 86q39 35 86 35z" />
<glyph unicode="&#xd4;" d="M30 1557h119l121 299l119 -299h118l-237 539zM508 1253q0 76 -51 127q-53 53 -127 54h-121q-72 0 -125 -53.5t-53 -127.5v-1075q0 -72 53 -125t125 -53h121q74 0 127 53q51 51 51 125v1075zM270 1315q49 0 84 -35q35 -39 35 -86v-954q0 -47 -35 -86q-35 -35 -84 -35 q-47 0 -86 35q-35 39 -34 86v954q0 47 34 86q39 35 86 35z" />
<glyph unicode="&#xd5;" d="M539 1737v119l-178 -181l-180 181l-178 -181v-118l178 180l180 -180zM508 1253q0 76 -51 127q-53 53 -127 54h-121q-72 0 -125 -53.5t-53 -127.5v-1075q0 -72 53 -125t125 -53h121q74 0 127 53q51 51 51 125v1075zM270 1315q49 0 84 -35q35 -39 35 -86v-954 q0 -47 -35 -86q-35 -35 -84 -35q-47 0 -86 35q-35 39 -34 86v954q0 47 34 86q39 35 86 35z" />
<glyph unicode="&#xd9;" horiz-adv-x="542" d="M213 1556h119l-119 240h-121zM152 1434h-119v-1256q0 -72 53 -125t125 -53h121q74 0 127 53q51 51 51 125v1256h-119v-1194q0 -47 -35 -86q-35 -35 -84 -35q-47 0 -86 35q-35 39 -34 86v1194z" />
<glyph unicode="&#xda;" horiz-adv-x="542" d="M451 1796h-119l-121 -240h121zM152 1434h-119v-1256q0 -72 53 -125t125 -53h121q74 0 127 53q51 51 51 125v1256h-119v-1194q0 -47 -35 -86q-35 -35 -84 -35q-47 0 -86 35q-35 39 -34 86v1194z" />
<glyph unicode="&#xdb;" horiz-adv-x="542" d="M32 1557h119l121 299l119 -299h118l-237 539zM152 1434h-119v-1256q0 -72 53 -125t125 -53h121q74 0 127 53q51 51 51 125v1256h-119v-1194q0 -47 -35 -86q-35 -35 -84 -35q-47 0 -86 35q-35 39 -34 86v1194z" />
<glyph unicode="&#xdd;" horiz-adv-x="501" d="M430 1796h-119l-121 -240h121zM137 1434h-125l178 -717v-717h121v717l178 717h-124l-113 -461z" />
<glyph unicode="&#xe0;" horiz-adv-x="509" d="M197 1556h119l-119 240h-121zM315 1434h-120l-179 -1434h131l39 358h140l36 -358h132zM313 477h-114l57 545z" />
<glyph unicode="&#xe1;" horiz-adv-x="509" d="M434 1796h-119l-121 -240h121zM315 1434h-120l-179 -1434h131l39 358h140l36 -358h132zM313 477h-114l57 545z" />
<glyph unicode="&#xe2;" horiz-adv-x="509" d="M16 1557h119l121 299l119 -299h118l-237 539zM315 1434h-120l-179 -1434h131l39 358h140l36 -358h132zM313 477h-114l57 545z" />
<glyph unicode="&#xe3;" horiz-adv-x="509" d="M522 1737v119l-178 -181l-180 181l-178 -181v-118l178 180l180 -180zM315 1434h-120l-179 -1434h131l39 358h140l36 -358h132zM313 477h-114l57 545z" />
<glyph unicode="&#xe5;" horiz-adv-x="509" d="M494 1871q0 76 -51 127q-53 53 -127 54h-121q-72 0 -125 -53.5t-53 -127.5v-137q0 -72 53 -125t125 -53h121q74 0 127 53q51 51 51 125v137zM256 1933q49 0 84 -35q35 -39 35 -86v-16q0 -47 -35 -86q-35 -35 -84 -35q-47 0 -86 35q-35 39 -35 86v16q0 47 35 86 q39 35 86 35zM315 1434h-120l-179 -1434h131l39 358h140l36 -358h132zM313 477h-114l57 545z" />
<glyph unicode="&#xe8;" horiz-adv-x="518" d="M213 1556h119l-119 240h-121zM510 1315v119h-477v-1434h477v119h-358v538h358v119h-358v539h358z" />
<glyph unicode="&#xe9;" horiz-adv-x="518" d="M451 1796h-119l-121 -240h121zM510 1315v119h-477v-1434h477v119h-358v538h358v119h-358v539h358z" />
<glyph unicode="&#xea;" horiz-adv-x="518" d="M32 1557h119l121 299l119 -299h118l-237 539zM510 1315v119h-477v-1434h477v119h-358v538h358v119h-358v539h358z" />
<glyph unicode="&#xec;" horiz-adv-x="188" d="M33 1556h119l-119 240h-121zM152 1434h-119v-1434h119v1434z" />
<glyph unicode="&#xed;" horiz-adv-x="188" d="M272 1796h-119l-121 -240h121zM152 1434h-119v-1434h119v1434z" />
<glyph unicode="&#xee;" horiz-adv-x="188" d="M-148 1557h119l121 299l119 -299h118l-237 539zM152 1434h-119v-1434h119v1434z" />
<glyph unicode="&#xf1;" horiz-adv-x="544" d="M539 1737v119l-178 -181l-180 181l-178 -181v-118l178 180l180 -180zM217 1434h-184v-1434h119v1067l174 -1067h184v1434h-119v-1065z" />
<glyph unicode="&#xf2;" d="M209 1556h119l-119 240h-121zM508 1253q0 76 -51 127q-53 53 -127 54h-121q-72 0 -125 -53.5t-53 -127.5v-1075q0 -72 53 -125t125 -53h121q74 0 127 53q51 51 51 125v1075zM270 1315q49 0 84 -35q35 -39 35 -86v-954q0 -47 -35 -86q-35 -35 -84 -35q-47 0 -86 35 q-35 39 -34 86v954q0 47 34 86q39 35 86 35z" />
<glyph unicode="&#xf3;" d="M449 1796h-119l-121 -240h121zM508 1253q0 76 -51 127q-53 53 -127 54h-121q-72 0 -125 -53.5t-53 -127.5v-1075q0 -72 53 -125t125 -53h121q74 0 127 53q51 51 51 125v1075zM270 1315q49 0 84 -35q35 -39 35 -86v-954q0 -47 -35 -86q-35 -35 -84 -35q-47 0 -86 35 q-35 39 -34 86v954q0 47 34 86q39 35 86 35z" />
<glyph unicode="&#xf4;" d="M30 1557h119l121 299l119 -299h118l-237 539zM508 1253q0 76 -51 127q-53 53 -127 54h-121q-72 0 -125 -53.5t-53 -127.5v-1075q0 -72 53 -125t125 -53h121q74 0 127 53q51 51 51 125v1075zM270 1315q49 0 84 -35q35 -39 35 -86v-954q0 -47 -35 -86q-35 -35 -84 -35 q-47 0 -86 35q-35 39 -34 86v954q0 47 34 86q39 35 86 35z" />
<glyph unicode="&#xf5;" d="M539 1737v119l-178 -181l-180 181l-178 -181v-118l178 180l180 -180zM508 1253q0 76 -51 127q-53 53 -127 54h-121q-72 0 -125 -53.5t-53 -127.5v-1075q0 -72 53 -125t125 -53h121q74 0 127 53q51 51 51 125v1075zM270 1315q49 0 84 -35q35 -39 35 -86v-954 q0 -47 -35 -86q-35 -35 -84 -35q-47 0 -86 35q-35 39 -34 86v954q0 47 34 86q39 35 86 35z" />
<glyph unicode="&#xf9;" horiz-adv-x="542" d="M213 1556h119l-119 240h-121zM152 1434h-119v-1256q0 -72 53 -125t125 -53h121q74 0 127 53q51 51 51 125v1256h-119v-1194q0 -47 -35 -86q-35 -35 -84 -35q-47 0 -86 35q-35 39 -34 86v1194z" />
<glyph unicode="&#xfa;" horiz-adv-x="542" d="M451 1796h-119l-121 -240h121zM152 1434h-119v-1256q0 -72 53 -125t125 -53h121q74 0 127 53q51 51 51 125v1256h-119v-1194q0 -47 -35 -86q-35 -35 -84 -35q-47 0 -86 35q-35 39 -34 86v1194z" />
<glyph unicode="&#xfb;" horiz-adv-x="542" d="M32 1557h119l121 299l119 -299h118l-237 539zM152 1434h-119v-1256q0 -72 53 -125t125 -53h121q74 0 127 53q51 51 51 125v1256h-119v-1194q0 -47 -35 -86q-35 -35 -84 -35q-47 0 -86 35q-35 39 -34 86v1194z" />
<glyph unicode="&#xfd;" horiz-adv-x="501" d="M430 1796h-119l-121 -240h121zM137 1434h-125l178 -717v-717h121v717l178 717h-124l-113 -461z" />
<glyph unicode="&#x152;" horiz-adv-x="1058" d="M1051 1315v119h-477v-1434h477v119h-358v538h358v119h-358v539h358zM508 1253q0 76 -51 127q-53 53 -127 54h-121q-72 0 -125 -53.5t-53 -127.5v-1075q0 -72 53 -125t125 -53h121q74 0 127 53q51 51 51 125v1075zM270 1315q49 0 84 -35q35 -39 35 -86v-954q0 -47 -35 -86 q-35 -35 -84 -35q-47 0 -86 35q-35 39 -34 86v954q0 47 34 86q39 35 86 35z" />
<glyph unicode="&#x153;" horiz-adv-x="1058" d="M1051 1315v119h-477v-1434h477v119h-358v538h358v119h-358v539h358zM508 1253q0 76 -51 127q-53 53 -127 54h-121q-72 0 -125 -53.5t-53 -127.5v-1075q0 -72 53 -125t125 -53h121q74 0 127 53q51 51 51 125v1075zM270 1315q49 0 84 -35q35 -39 35 -86v-954q0 -47 -35 -86 q-35 -35 -84 -35q-47 0 -86 35q-35 39 -34 86v954q0 47 34 86q39 35 86 35z" />
<glyph unicode="&#x2c6;" horiz-adv-x="501" d="M12 895h119l121 299l119 -299h118l-237 539z" />
<glyph unicode="&#x2dc;" horiz-adv-x="479" d="M268 303v119l-178 -181l-180 181l-178 -181v-118l178 180l180 -180z" />
<glyph unicode="&#x2000;" horiz-adv-x="1046" />
<glyph unicode="&#x2001;" horiz-adv-x="2095" />
<glyph unicode="&#x2002;" horiz-adv-x="1046" />
<glyph unicode="&#x2003;" horiz-adv-x="2095" />
<glyph unicode="&#x2004;" horiz-adv-x="698" />
<glyph unicode="&#x2005;" horiz-adv-x="522" />
<glyph unicode="&#x2006;" horiz-adv-x="348" />
<glyph unicode="&#x2007;" horiz-adv-x="348" />
<glyph unicode="&#x2008;" horiz-adv-x="260" />
<glyph unicode="&#x2009;" horiz-adv-x="417" />
<glyph unicode="&#x200a;" horiz-adv-x="114" />
<glyph unicode="&#x2010;" horiz-adv-x="544" d="M510 178v121h-477v-121h477z" />
<glyph unicode="&#x2011;" horiz-adv-x="544" d="M510 178v121h-477v-121h477z" />
<glyph unicode="&#x2012;" horiz-adv-x="544" d="M510 178v121h-477v-121h477z" />
<glyph unicode="&#x2013;" horiz-adv-x="1024" d="M33 178v121h956v-121h-956z" />
<glyph unicode="&#x2014;" horiz-adv-x="2048" d="M33 178v121h1980v-121h-1980z" />
<glyph unicode="&#x2018;" horiz-adv-x="188" d="M152 1434h-119v-359h119v359z" />
<glyph unicode="&#x2019;" horiz-adv-x="188" d="M152 1434h-119v-359h119v359z" />
<glyph unicode="&#x201a;" horiz-adv-x="176" d="M31 59h59l-59 -59h59l60 59v119h-119v-119z" />
<glyph unicode="&#x201c;" horiz-adv-x="425" d="M152 1434h-119v-359h119v359zM391 1434h-119v-359h119v359z" />
<glyph unicode="&#x201d;" horiz-adv-x="425" d="M152 1434h-119v-359h119v359zM391 1434h-119v-359h119v359z" />
<glyph unicode="&#x201e;" horiz-adv-x="425" d="M152 358h-119v-358h119v358zM391 358h-119v-358h119v358z" />
<glyph unicode="&#x2022;" horiz-adv-x="237" d="M47 788q-18 -16 -18 -40v-62q0 -27 18 -41q14 -18 41 -18h59q25 0 43 18q16 14 17 41v62q0 27 -17 40q-18 18 -43 19h-59q-27 -1 -41 -19z" />
<glyph unicode="&#x2026;" horiz-adv-x="544" d="M152 119h-119v-119h119v119zM510 119h-119v-119h119v119zM332 119h-121v-119h121v119z" />
<glyph unicode="&#x202f;" horiz-adv-x="417" />
<glyph unicode="&#x2039;" horiz-adv-x="499" d="M477 987v148l-477 -418l477 -418v147l-299 271z" />
<glyph unicode="&#x203a;" horiz-adv-x="509" d="M33 1135v-148l299 -270l-299 -271v-147l477 418z" />
<glyph unicode="&#x205f;" horiz-adv-x="522" />
<glyph unicode="&#x20ac;" horiz-adv-x="643" d="M612 1253q0 74 -53 127.5t-127 53.5h-119q-74 0 -127 -53.5t-53 -127.5v-358h-59v-119h59v-119h-119v-120h119v-359q0 -72 53.5 -125t126.5 -53h119q74 0 127 53t53 125v180h-120v-118q0 -51 -35 -86t-84 -35t-84 34.5t-35 86.5v297h238v120h-238v119h297v119h-297v299 q0 51 35 86t84 35t84 -35t35 -86v-119h120v178z" />
<glyph unicode="&#x2122;" horiz-adv-x="569" d="M244 1374v56h-224v-56h84v-616h56v616h84zM537 1430h-91l-49 -476l-51 476h-88v-672h55v448l58 -448h55l55 448v-448h56v672z" />
<glyph unicode="&#xe000;" horiz-adv-x="1435" d="M0 1435h1435v-1435h-1435v1435z" />
<glyph unicode="&#xfb01;" horiz-adv-x="698" d="M662 1434h-119v-1434h119v1434zM510 1315v119h-477v-1434h119v657h358v119h-358v539h358z" />
<glyph unicode="&#xfb02;" horiz-adv-x="1019" d="M662 1434h-119v-1434h477v119h-358v1315zM510 1315v119h-477v-1434h119v657h358v119h-358v539h358z" />
<glyph unicode="&#xfb03;" horiz-adv-x="1208" d="M1172 1434h-119v-1434h119v1434zM1020 1315v119h-477v-1434h119v657h358v119h-358v539h358zM510 1315v119h-477v-1434h119v657h358v119h-358v539h358z" />
<glyph unicode="&#xfb04;" horiz-adv-x="1529" d="M1172 1434h-119v-1434h477v119h-358v1315zM1020 1315v119h-477v-1434h119v657h358v119h-358v539h358zM510 1315v119h-477v-1434h119v657h358v119h-358v539h358z" />
</font>
</defs>
</svg>
